<svg width="56" height="56" viewBox="0 0 56 56" fill="none" xmlns="http://www.w3.org/2000/svg">
<path d="M52.2511 9.62892C52.0602 9.47365 51.8351 9.36591 51.5945 9.31453C51.3538 9.26315 51.1044 9.2696 50.8667 9.33336L35.9178 14L20.9378 6.39336C20.733 6.2986 20.5101 6.24951 20.2844 6.24951C20.0588 6.24951 19.8359 6.2986 19.6311 6.39336L4.07555 12.7556C3.78902 12.8733 3.54416 13.0739 3.37234 13.3316C3.20052 13.5893 3.10955 13.8925 3.1111 14.2023V46.06C3.11237 46.3148 3.1762 46.5654 3.29698 46.7897C3.41776 47.014 3.59179 47.2053 3.80377 47.3466C4.01576 47.4879 4.25921 47.575 4.51274 47.6002C4.76627 47.6254 5.02211 47.588 5.25777 47.4911L20.2222 41.3467L35.14 49C35.3614 49.1135 35.6068 49.1721 35.8555 49.1711C36.0102 49.1946 36.1675 49.1946 36.3222 49.1711L51.8778 44.3178C52.2055 44.2151 52.4901 44.0068 52.6871 43.7254C52.8841 43.4441 52.9824 43.1054 52.9667 42.7623V10.8889C52.9586 10.6366 52.8892 10.39 52.7646 10.1705C52.6399 9.95099 52.4637 9.76511 52.2511 9.62892ZM49.7778 41.6111L36.8355 45.6556V42.0934H34.3467V45.2045L21.28 38.5V35.8711H18.7911V38.5467L6.22221 43.7267V15.2289L18.7911 10.0489V13.7045H21.28V10.0645L34.3467 16.7534V20.02H36.8355V17.1111L49.7778 13.0045V41.6111Z" fill="black"/>
<path d="M34.3467 23.4268H36.8356V29.3534H34.3467V23.4268Z" fill="black"/>
<path d="M34.3467 32.76H36.8356V38.6867H34.3467V32.76Z" fill="black"/>
<path d="M18.7913 17.2046H21.2801V23.1313H18.7913V17.2046Z" fill="black"/>
<path d="M18.7913 26.6465H21.2801V32.4798H18.7913V26.6465Z" fill="black"/>
</svg>
