<svg width="81" height="81" viewBox="0 0 81 81" fill="none" xmlns="http://www.w3.org/2000/svg">
<g clip-path="url(#clip0_111_64)">
<path d="M79.3036 50.1731C73.9593 71.6131 52.2371 84.6462 30.8277 79.3015C9.38708 73.9571 -3.64605 52.2359 1.69864 30.8268C7.04301 9.38683 28.7336 -3.64629 50.1743 1.6984C71.5836 7.01152 84.6483 28.7328 79.3036 50.1731Z" fill="url(#paint0_linear_111_64)"/>
<path d="M56.8064 31.5565C56.1861 26.2228 51.5481 24.4891 45.6817 24.0875L45.5641 16.6456L41.0551 16.7214L41.1846 23.966C39.9949 23.9936 38.7751 24.0293 37.5634 24.0952L37.4258 16.8204L32.9168 16.8963L33.0565 24.2999C32.0642 24.3393 31.102 24.3706 30.17 24.3939L30.1619 24.3637L23.9178 24.4839L24.0141 29.311C24.0141 29.311 27.3475 29.1942 27.2952 29.2406C29.129 29.2022 29.7382 30.2683 29.9205 31.1901L30.0554 39.6626C30.1843 39.6604 30.3433 39.6502 30.5486 39.6922C30.3896 39.7024 30.2306 39.7127 30.0635 39.6928L30.2629 51.545C30.1891 52.1148 29.8561 53.0452 28.598 53.0588C28.6443 53.111 25.3169 53.1291 25.3169 53.1291L24.5061 58.5551L30.402 58.4635C31.5011 58.4602 32.5619 58.4347 33.6308 58.4395L33.7646 65.9418L38.2736 65.8659L38.156 58.424C39.3839 58.4185 40.6119 58.413 41.7713 58.3935L41.911 65.7971L46.42 65.7213L46.2862 58.219C53.8947 57.6362 59.1824 55.637 59.6912 48.4802C60.1251 42.7346 57.3764 40.2036 53.0392 39.2305C55.6766 37.8444 57.266 35.445 56.8064 31.5565ZM50.7566 47.7361C50.866 53.3361 41.2313 52.8766 38.1696 52.9205L37.9946 42.9705C41.0563 42.9266 50.6731 41.8703 50.7566 47.7361ZM48.4209 33.7063C48.4995 38.8293 40.4791 38.3578 37.9328 38.393L37.7811 29.375C40.3274 29.3397 48.3239 28.3941 48.4209 33.7063Z" fill="white"/>
</g>
<defs>
<linearGradient id="paint0_linear_111_64" x1="40.4786" y1="0.4808" x2="40.4786" y2="80.4919" gradientUnits="userSpaceOnUse">
<stop stop-color="#F9AA4B"/>
<stop offset="1" stop-color="#F7931A"/>
</linearGradient>
<clipPath id="clip0_111_64">
<rect width="80" height="80" fill="white" transform="translate(0.5 0.5)"/>
</clipPath>
</defs>
</svg>
