<svg width="23" height="24" viewBox="0 0 23 24" fill="none" xmlns="http://www.w3.org/2000/svg">
<path d="M20.3205 22.6901L20.3439 22.6526L22.6769 17.9171L15.8619 12.8058L12.7263 15.1574C11.5438 15.087 10.4281 14.5855 9.59049 13.7479C8.75285 12.9102 8.25139 11.7946 8.18104 10.612L10.5326 7.47647L5.42145 0.66153L0.725491 2.97514L0.685842 2.99461L0.648436 3.01807C0.449498 3.14153 0.28547 3.31386 0.171968 3.51865C0.0584664 3.72343 -0.000731851 3.95386 6.8291e-06 4.188L6.77569e-06 5.40994C6.67276e-06 7.76435 0.463742 10.0957 1.36474 12.2709C2.26573 14.4461 3.58635 16.4225 5.25117 18.0873C6.91599 19.7522 8.89242 21.0728 11.0676 21.9738C13.2428 22.8747 15.5742 23.3385 17.9286 23.3385H19.1506C19.3847 23.3392 19.6151 23.28 19.8199 23.1665C20.0247 23.053 20.197 22.889 20.3205 22.6901ZM17.9286 21.5885C9.00769 21.5885 1.75001 14.3308 1.75001 5.40994V4.42119L4.89251 2.8732L8.34521 7.4768L6.423 10.0398V10.3315C6.42495 12.0772 7.11929 13.7508 8.35367 14.9852C9.58806 16.2196 11.2617 16.9139 13.0074 16.9159H13.299L15.862 14.9937L20.4653 18.446L18.9171 21.5885H17.9286Z" fill="white"/>
</svg>
