<svg width="26" height="26" viewBox="0 0 26 26" fill="none" xmlns="http://www.w3.org/2000/svg">
<path fill-rule="evenodd" clip-rule="evenodd" d="M22.2117 3.7789C21.0125 2.57748 19.5856 1.62485 18.0137 0.976186C16.4419 0.327526 14.7564 -0.00426286 13.0548 4.13467e-05C5.91957 4.13467e-05 0.111037 5.77956 0.108153 12.8838C0.108153 15.1542 0.703714 17.3702 1.83571 19.3249L0 26L6.86266 24.2074C8.76095 25.2359 10.8877 25.7752 13.049 25.7761H13.0548C20.1885 25.7761 25.9971 19.9966 25.9999 12.8924C26.0048 11.1995 25.6726 9.52254 25.0224 7.95827C24.3721 6.39401 23.4168 4.97352 22.2117 3.7789ZM13.0548 23.6018H13.0504C11.1232 23.602 9.2314 23.0859 7.57358 22.1078L7.18135 21.8753L3.10903 22.9387L4.19489 18.9876L3.93965 18.5829C2.86214 16.8757 2.29173 14.8999 2.29428 12.8838C2.29717 6.97939 7.12367 2.17579 13.0591 2.17579C14.4727 2.17267 15.8728 2.4486 17.1785 2.98761C18.4842 3.52663 19.6695 4.31802 20.6658 5.316C21.6675 6.30921 22.4615 7.49016 23.0018 8.7906C23.5421 10.091 23.8181 11.4852 23.8138 12.8924C23.8109 18.7968 18.9844 23.6018 13.0548 23.6018ZM18.957 15.5805C18.6326 15.4183 17.0434 14.6404 16.7464 14.5328C16.4508 14.4252 16.2359 14.3721 16.0196 14.6935C15.8033 15.015 15.1832 15.7398 14.9943 15.9551C14.8054 16.1704 14.6165 16.1962 14.2935 16.0355C13.9705 15.8747 12.9279 15.5346 11.692 14.4381C10.7302 13.5841 10.0813 12.5307 9.89238 12.2078C9.70347 11.8849 9.87219 11.7112 10.0351 11.5505C10.1808 11.407 10.3582 11.1745 10.5197 10.9864C10.6812 10.7984 10.7345 10.665 10.8427 10.4497C10.9508 10.2344 10.8975 10.0464 10.8153 9.88565C10.7345 9.72347 10.0871 8.13902 9.81739 7.49462C9.55639 6.87031 9.28961 6.95355 9.09061 6.94494C8.88451 6.93655 8.67824 6.93272 8.47197 6.93346C8.30795 6.93762 8.14656 6.97546 7.99792 7.04461C7.84928 7.11376 7.7166 7.21273 7.60819 7.33531C7.31113 7.65823 6.47619 8.43611 6.47619 10.0206C6.47619 11.605 7.63559 13.1364 7.7971 13.3516C7.95861 13.5669 10.0784 16.8176 13.323 18.2126C14.0959 18.5442 14.6987 18.7422 15.1674 18.8915C15.9417 19.1369 16.6469 19.101 17.205 19.0192C17.8265 18.9274 19.1185 18.2413 19.3882 17.4893C19.6579 16.7373 19.6579 16.0929 19.5771 15.958C19.4964 15.823 19.2786 15.7412 18.957 15.5805Z" fill="white"/>
</svg>
